<svg width="210" height="206" viewBox="0 0 210 206" fill="none" xmlns="http://www.w3.org/2000/svg">
<g id="1 1">
<g id="Group">
<path id="Vector" d="M141.902 44.2777L33.7954 129.387C32.6814 129.513 31.0258 129.23 28.8287 128.538C26.0746 127.656 23.4598 126.35 20.9842 124.62C13.9287 119.71 9.65827 112.661 8.1729 103.472C6.71849 94.6605 8.04912 85.2039 12.1648 75.1022C13.5264 71.7664 15.1974 68.3205 17.1779 64.7644L20.7985 58.5806C23.7383 53.2623 26.1675 48.0069 28.086 42.8144C31.2734 34.1288 32.1399 27.709 30.6854 23.555L32.1708 23.7438C33.2848 23.9641 34.1822 24.3732 34.863 24.9711C34.7702 23.9641 34.5071 22.784 34.0739 21.4308C33.1765 18.6615 31.8923 16.3327 30.2213 14.4445L35.2344 13.7365C39.4738 13.7679 43.7752 14.9952 48.1385 17.4184L47.8135 14.8222C47.6897 13.0599 47.8599 12.0843 48.3241 11.8955C49.0359 11.6123 50.057 12.3046 51.3877 13.9725C51.4186 12.5878 51.7126 11.0143 52.2696 9.25204C53.3527 5.79038 55.1785 3.1784 57.7469 1.41611L60.2999 6.18375C62.6826 9.61394 65.5915 11.9899 69.0264 13.3116C72.028 14.5075 78.836 15.4201 89.4501 16.0495C99.7239 16.6789 106.965 17.9691 111.174 19.9202L115.63 20.2979C119.25 20.7699 122.592 21.6353 125.656 22.8941C135.527 26.9537 140.943 34.0816 141.902 44.2777Z" fill="#68AE28"/>
<path id="Vector_2" d="M11.3757 112.724C4.38214 99.3181 6.05317 83.9137 16.3888 66.511C11.1591 80.5779 12.923 91.8283 21.6804 100.262C25.4867 103.913 30.2832 106.588 36.0699 108.287C41.7328 109.923 47.7362 110.458 54.0799 109.892L32.4493 129.765C29.2929 129.482 25.7806 127.924 21.9125 125.092C17.4874 121.787 13.9751 117.665 11.3757 112.724Z" fill="#56931F"/>
<path id="Vector_3" d="M184.328 38.0467C187.082 39.274 189.48 43.4438 191.522 50.5559C193.348 57.0072 193.967 61.5702 193.379 64.2452C197.031 68.5565 200.589 76.9746 204.055 89.4995C207.985 103.535 208.651 113.747 206.051 120.135C205.216 122.181 202.771 124.966 198.717 128.49C194.509 132.204 190.346 135.067 186.231 137.082L188.32 140.527C189.991 143.549 191.491 146.806 192.822 150.299C197.062 161.565 198.825 173.24 198.114 185.324C197.897 189.164 194.772 192.311 188.737 194.765C182.827 197.126 176.53 197.912 169.845 197.126C167.586 196.811 164.6 194.12 160.887 189.054C156.647 183.169 154.125 177.064 153.321 170.738C147.658 174.074 142.877 176.324 138.978 177.488L137.771 179.566C136.719 181.265 135.481 182.838 134.057 184.286C129.57 188.943 124.263 191.54 118.136 192.075C112.04 192.61 107.305 192.122 103.932 190.611C102.88 190.139 102.014 189.589 101.333 188.959L100.683 188.157L63.5955 189.431L59.7893 192.83C56.3853 195.127 52.4553 196.339 47.9992 196.465C41.903 196.653 37.1065 196.087 33.6097 194.765C29.2155 193.066 26.0901 189.966 24.2334 185.466C21.5412 178.983 20.1177 171.556 19.963 163.186C19.7464 152.297 22.1446 143.391 27.1577 136.468C31.9851 129.796 38.2825 122.999 46.0497 116.076C48.2158 114.156 54.1109 109.278 63.7348 101.442C68.655 97.4771 73.0338 93.6378 76.8709 89.9244C80.77 86.148 83.1373 83.4416 83.9728 81.8052C84.8703 75.5427 86.0462 69.1859 87.5006 62.7346C90.4404 49.8321 93.2873 42.9402 96.0414 42.0591C98.7955 41.2094 102.849 42.1063 108.203 44.7497C110.864 46.1029 113.247 47.5191 115.351 48.9981L118.508 47.8652C121.293 47.0156 124.341 46.2918 127.652 45.6938C138.235 43.8371 149.468 43.727 161.351 45.3634C163.146 43.4123 167.107 41.5241 173.234 39.6989C179.144 37.9366 182.842 37.3859 184.328 38.0467Z" fill="#7CBEB3"/>
<path id="Vector_4" d="M192.729 56.8341L193.658 64.2452L188.877 57.0229C189.372 54.9145 189.588 52.0665 189.526 48.4789L189.248 43.7585C190.671 46.874 191.832 51.2325 192.729 56.8341Z" fill="#68A198"/>
<path id="Vector_5" d="M86.433 65.1892C88.9395 53.4826 91.3996 46.7166 93.8134 44.8914C93.2254 51.6888 93.0243 58.4076 93.2099 65.0476C93.3337 68.9499 93.736 74.8976 94.4168 82.8909C94.8191 87.6428 94.3394 91.8597 92.9778 95.5417C91.771 98.7516 90.1928 100.939 88.2432 102.103C86.3247 103.236 84.7465 102.984 83.5087 101.348C82.178 99.5541 81.7293 96.47 82.1625 92.0958C83.029 83.3787 84.4525 74.4098 86.433 65.1892Z" fill="#68A198"/>
<path id="Vector_6" d="M170.217 185.183C172.599 189.714 175.446 192.547 178.758 193.68L176.994 197.267C172.321 198.211 168.19 196.968 164.6 193.538C160.299 189.353 156.493 181.753 153.181 170.738C147.828 174.043 141.887 176.513 135.357 178.149C128.921 179.786 121.184 180.777 112.148 181.123C110.725 181.595 109.688 182.602 109.038 184.144C108.388 185.623 108.373 186.961 108.992 188.157L106.393 191.272L100.822 187.826C100.977 186.756 101.844 183.562 103.422 178.244C104.969 173.146 105.944 168.724 106.346 164.979C107.522 153.776 104.458 143.643 97.1554 134.58C103.654 141.22 115.042 145.39 131.319 147.089C148.71 148.883 163.486 147.278 175.648 142.274C171.749 144.823 168.963 148.788 167.292 154.17C165.807 159.016 165.358 164.381 165.946 170.266C166.534 175.931 167.958 180.903 170.217 185.183Z" fill="#68A198"/>
<path id="Vector_7" d="M19.4988 158.088C20.8294 169.133 26.7709 176.23 37.3232 179.377C41.377 180.573 45.6474 181.013 50.1344 180.698C54.2192 180.415 57.5767 179.597 60.207 178.244L63.5955 189.856C61.1818 192.248 57.9326 194.12 53.8478 195.473C45.6783 198.18 37.4624 197 29.2001 191.933C25.2082 189.478 22.3457 183.247 20.6128 173.24C20.0558 169.873 19.6845 166.458 19.4988 162.997C19.3441 160.102 19.3441 158.465 19.4988 158.088Z" fill="#68A198"/>
<path id="Vector_8" d="M118.879 81.1444C120.086 80.9241 121.37 81.1286 122.732 81.758C118.059 85.4085 115.614 91.0101 115.398 98.5628C115.181 105.455 116.728 111.922 120.039 117.964C113.541 117.24 108.961 115.729 106.3 113.432C105.526 112.74 105.201 110.804 105.325 107.626C105.449 104.322 106.021 100.86 107.042 97.2411C109.704 87.6114 113.649 82.2458 118.879 81.1444Z" fill="white"/>
<path id="Vector_9" d="M134.939 99.1292C136.394 103.094 137.291 106.666 137.632 109.845C138.003 113.243 137.632 115.509 136.518 116.642C135.775 117.397 133.779 117.917 130.53 118.2C127.219 118.452 123.722 118.373 120.039 117.964C116.728 111.922 115.181 105.455 115.398 98.5628C115.614 91.0101 118.059 85.4085 122.732 81.758C127.342 83.9294 131.412 89.7198 134.939 99.1292Z" fill="#D60040"/>
<path id="Vector_10" d="M189.294 78.7841C193.162 81.994 195.468 86.7931 196.211 93.1815C196.675 97.1781 196.489 102.795 195.654 110.033C194.292 110.568 192.977 110.93 191.708 111.119C190.408 111.339 189.434 111.339 188.784 111.119C186.958 110.521 186.045 105.769 186.045 96.8634C186.014 87.7687 187.097 81.7423 189.294 78.7841Z" fill="#D60040"/>
<path id="Vector_11" d="M189.294 78.7841C189.851 77.9974 190.439 77.5411 191.058 77.4152C194.06 76.7543 196.969 80.4835 199.785 88.6026C202.539 96.6589 203.08 102.418 201.409 105.879C200.636 107.516 198.717 108.901 195.654 110.033C196.489 102.795 196.675 97.1781 196.211 93.1815C195.468 86.7931 193.162 81.994 189.294 78.7841Z" fill="white"/>
<path id="Vector_12" d="M162.047 73.9693C161.15 74.3154 158.813 73.3556 155.038 71.0898C151.077 68.7611 149.174 66.8571 149.329 65.3781C149.545 63.427 152.748 60.7363 158.937 57.3061C165.219 53.8445 169.397 52.5699 171.47 53.4826C172.801 54.049 172.104 57.3848 169.381 63.4899C166.627 69.6265 164.182 73.1196 162.047 73.9693Z" fill="#006359"/>
<path id="Vector_13" d="M141.391 78.0289C141.299 77.6198 141.763 76.8488 142.784 75.7158C143.836 74.5515 144.78 73.8591 145.615 73.6389L146.637 75.1022C147.503 76.5813 148.37 78.6583 149.236 81.3332L148.633 82.7965C148.045 83.8665 147.317 84.606 146.451 85.0151L144.223 82.8437C142.676 81.1129 141.732 79.5079 141.391 78.0289Z" fill="#006359"/>
<path id="Vector_14" d="M177.272 88.3194C178.231 93.8895 178.309 97.005 177.504 97.6659C176.793 98.2638 174.626 98.0278 171.006 96.9578C167.354 95.8879 165.281 94.8494 164.786 93.8423C164.941 91.5136 166.117 88.6027 168.314 85.1095C170.573 81.6164 172.398 79.8698 173.791 79.8698C175.152 79.8698 176.313 82.6864 177.272 88.3194Z" fill="#006359"/>
<path id="Vector_15" d="M180.057 170.408C179.933 168.614 181.017 166.049 183.306 162.714C185.535 159.441 187.144 157.867 188.134 157.993C189.619 158.15 190.64 161.313 191.197 167.481C191.724 173.681 191.244 177.032 189.759 177.536C188.118 178.102 186.153 177.788 183.863 176.592C181.233 175.176 179.964 173.114 180.057 170.408Z" fill="#006359"/>
<path id="Vector_16" d="M32.9135 143.879L40.5724 144.209C44.0073 144.902 45.9878 145.673 46.5138 146.522C47.3803 147.939 46.8078 150.928 44.7964 155.491C42.8159 160.023 41.1449 162.352 39.7833 162.478C38.6074 162.572 36.2246 161.376 32.635 158.89C29.0144 156.404 27.2196 154.673 27.2505 153.698C27.2815 152.439 27.8849 150.645 29.0608 148.316C30.3605 145.704 31.6447 144.225 32.9135 143.879Z" fill="#006359"/>
<path id="Vector_17" d="M77.0566 103.425C77.8612 104.841 76.5615 108.775 73.1575 115.226C69.7536 121.677 67.1387 125.107 65.313 125.516C63.6419 125.926 60.9188 125.186 57.1435 123.298C53.5848 121.567 51.2175 119.978 50.0416 118.53C49.6702 118.058 49.9178 116.674 50.7843 114.376L52.1768 111.025L58.3967 106.021C62.6053 102.654 64.9571 100.907 65.4522 100.781L71.2544 101.301C74.6584 101.899 76.5924 102.607 77.0566 103.425Z" fill="#006359"/>
<path id="Vector_18" d="M124.17 86.5257C125.161 86.5257 126.027 87.517 126.77 89.4995C127.513 91.608 127.868 94.2357 127.837 97.3827C127.776 100.372 127.373 102.733 126.631 104.463C125.95 106.037 125.114 106.824 124.124 106.824C123.196 106.824 122.391 105.974 121.71 104.275C120.968 102.481 120.565 100.215 120.503 97.4771C120.38 94.1728 120.72 91.4821 121.525 89.4051C122.236 87.4855 123.118 86.5257 124.17 86.5257Z" fill="white"/>
<path id="Vector_19" d="M187.113 87.5642L188.041 83.3158C188.412 82.8122 188.768 82.5762 189.109 82.6077C189.666 82.6392 190.192 83.2528 190.687 84.4487C191.399 86.0536 191.785 88.3194 191.847 91.2461C191.878 94.0154 191.631 96.1711 191.105 97.7131C190.61 99.0978 189.991 99.7901 189.248 99.7901C188.784 99.7901 188.32 99.4439 187.855 98.7516C187.36 97.9963 187.02 97.005 186.834 95.7777C186.463 93.6063 186.556 90.8685 187.113 87.5642Z" fill="white"/>
<path id="Vector_20" d="M167.339 47.5348C158.86 45.8669 150.273 45.2218 141.577 45.5994C132.232 45.9771 123.644 47.5191 115.815 50.2255C115.537 50.3199 115.15 50.0052 114.655 49.2814C114.129 48.5576 114.005 48.1327 114.284 48.0069C123.165 44.9543 132.789 43.3179 143.155 43.0976C152.253 42.8773 160.562 43.7427 168.082 45.6939C171.919 46.7009 173.744 47.4404 173.559 47.9125L167.339 47.5348Z" fill="#0D131A"/>
<path id="Vector_21" d="M192.404 60.7048C198.686 69.9569 203.266 80.688 206.144 92.8982C208.651 103.535 209.269 111.764 208.001 117.586C206.608 124.037 199.676 130.646 187.206 137.412C174.828 144.146 162.867 147.876 151.325 148.599C138.978 149.355 127.358 148.316 116.465 145.484C105.572 142.652 98.548 138.828 95.3916 134.013C94.3704 132.44 94.0455 131.48 94.4168 131.134C94.8191 130.788 95.732 131.401 97.1554 132.975C101.333 137.632 108.775 141.188 119.482 143.643C129.663 145.972 140.293 146.79 151.371 146.098C162.945 145.374 174.626 141.676 186.416 135.005C197.742 128.585 204.024 122.511 205.262 116.784C206.562 110.836 206.02 102.811 203.637 92.7094C200.976 81.4118 196.721 71.2472 190.873 62.2154C188.459 58.4705 187.515 56.3935 188.041 55.9844C188.536 55.5753 189.991 57.1488 192.404 60.7048Z" fill="#0D131A"/>
<path id="Vector_22" d="M84.8548 82.3245C82.8124 86.2267 78.6812 90.8685 72.4613 96.2498C68.7479 99.4282 62.497 104.463 53.7086 111.355C45.6938 117.838 39.5048 123.55 35.1415 128.49C29.1382 135.288 25.1463 141.975 23.1658 148.552C20.783 156.451 20.6592 165.326 22.7944 175.176C24.7749 184.459 27.5909 190.187 31.2425 192.358C35.1725 194.687 40.4641 195.709 47.1173 195.426C53.9871 195.143 58.7371 193.507 61.3675 190.517C65.4213 185.891 66.9995 178.401 66.1021 168.048C65.1737 157.474 62.0173 149.04 56.6329 142.746C54.5286 140.26 53.6312 138.749 53.9407 138.214C54.2501 137.679 55.5653 138.671 57.8861 141.188C64.6631 148.584 68.4384 157.631 69.212 168.331C69.9238 178.496 67.835 186.363 62.9457 191.933C60.0059 195.3 54.7143 197.189 47.0709 197.598C39.675 198.007 33.8109 196.921 29.4786 194.341C25.0844 191.729 21.8661 185.56 19.8237 175.836C17.7504 165.829 17.9515 156.577 20.4272 148.08C22.3148 141.66 26.0437 135.225 31.6138 128.774C35.6676 124.053 41.5317 118.53 49.2061 112.205L68.2373 96.533C75.1071 90.5223 80.2285 84.9994 83.6015 79.9642C83.7562 79.744 84.0347 80.0114 84.437 80.7667C84.8702 81.5535 85.0095 82.0727 84.8548 82.3245Z" fill="#0D131A"/>
<path id="Vector_23" d="M96.2271 40.643C98.1457 40.0136 101.379 40.643 105.928 42.5311C110.508 44.4508 114.268 46.7953 117.208 49.5646C119.529 51.7675 120.426 53.0105 119.9 53.2937C119.405 53.6084 117.981 52.8374 115.63 50.9807C112.597 48.652 109.085 46.6851 105.093 45.0802C101.194 43.4752 98.5789 42.9088 97.2483 43.3808C95.0821 44.1046 92.5756 49.6905 89.7286 60.1384C86.7269 71.1842 84.7774 82.765 83.88 94.8808C83.6324 98.374 83.1992 99.9789 82.5803 99.6957C81.9305 99.4124 81.6674 97.7603 81.7912 94.7392C82.1935 84.2598 83.7407 73.2927 86.433 61.8377C89.4965 48.8723 92.7612 41.8073 96.2271 40.643Z" fill="#0D131A"/>
<path id="Vector_24" d="M159.866 44.7025C162.558 42.6255 166.689 40.643 172.259 38.7548C178.541 36.6149 182.904 36.1113 185.349 37.2442C187.763 38.3457 189.96 42.0434 191.94 48.3373C193.766 54.1906 194.787 60.0754 195.004 65.9917C195.004 66.275 194.617 65.976 193.843 65.0948C193.039 64.2137 192.636 63.6158 192.636 63.3011C192.451 58.5177 191.368 53.4826 189.387 48.1957C187.5 43.1605 185.751 40.2653 184.142 39.5101C182.626 38.8177 179.16 39.2583 173.744 40.8318C168.267 42.4053 164.368 44.0889 162.047 45.8827C161.831 46.0715 161.351 45.9771 160.608 45.5994C159.897 45.1903 159.649 44.8914 159.866 44.7025Z" fill="#0D131A"/>
<path id="Vector_25" d="M161.583 72.6476C163.099 72.6161 165.219 69.6737 167.942 63.8203C170.634 58.0614 171.64 55.0088 170.959 54.6627C169.443 53.8759 165.683 55.0246 159.68 58.1086C153.646 61.1926 150.613 63.5686 150.582 65.2365C150.551 66.275 151.882 67.7383 154.574 69.6265C157.328 71.5147 159.664 72.5217 161.583 72.6476ZM157.87 56.8341C164.461 53.2151 169.165 51.6731 171.981 52.2081C172.94 52.3969 173.218 53.6871 172.816 56.0788C172.445 58.2817 171.609 60.8622 170.31 63.8203C167.06 71.1842 164.151 74.8032 161.583 74.6773C159.541 74.5515 156.818 73.3556 153.414 71.0898C149.855 68.7296 148.076 66.7313 148.076 65.0949C148.076 63.1752 151.34 60.4216 157.87 56.8341Z" fill="#0D131A"/>
<path id="Vector_26" d="M148.308 81.6164C148.4 81.3646 148.06 80.2003 147.286 78.1233C146.513 76.0148 145.956 74.9448 145.615 74.9134C145.337 74.8819 144.718 75.3067 143.759 76.1879C142.799 77.069 142.32 77.7299 142.32 78.1705C142.351 78.5796 143.001 79.6495 144.269 81.3804C145.538 83.0483 146.281 83.8822 146.497 83.8822C146.683 83.8822 147.008 83.5675 147.472 82.9381L148.308 81.6164ZM148.4 76.6599C149.36 78.9887 149.855 80.5779 149.886 81.4276C149.917 82.1199 149.422 83.064 148.4 84.2598C147.348 85.4872 146.559 85.9749 146.033 85.7232C145.414 85.4399 144.347 84.2756 142.83 82.2301C141.19 80.0586 140.432 78.5638 140.556 77.7456C140.68 76.896 141.407 75.826 142.738 74.5357C144.068 73.3084 145.074 72.7105 145.755 72.742C146.466 72.8049 147.348 74.1109 148.4 76.6599Z" fill="#0D131A"/>
<path id="Vector_27" d="M173.466 81.2388C172.507 81.1758 170.928 83.0168 168.731 86.7617C166.596 90.4751 165.652 92.6937 165.9 93.4175C166.147 94.0784 167.896 94.8808 171.145 95.8249C174.425 96.769 176.297 97.0208 176.762 96.5802C177.473 95.8879 177.334 93.1657 176.344 88.4138C175.354 83.6934 174.394 81.3017 173.466 81.2388ZM167.153 85.2039C169.845 80.4835 171.965 78.202 173.512 78.3593C175.462 78.5481 177.025 81.821 178.201 88.1778C179.346 94.5032 179.253 97.9963 177.922 98.6572C176.777 99.2551 174.255 98.8932 170.356 97.5715C166.519 96.2812 164.415 95.1798 164.043 94.2672C163.455 92.914 164.492 89.8929 167.153 85.2039Z" fill="#0D131A"/>
<path id="Vector_28" d="M108.156 90.6324C111.777 83.1741 115.661 79.681 119.807 80.1531C125.656 80.8454 130.684 85.8648 134.893 95.2113C136.657 99.1764 137.817 103.094 138.374 106.965C138.962 110.993 138.761 114.203 137.771 116.595C137.245 117.917 135.264 118.798 131.829 119.238C128.673 119.616 125.006 119.584 120.828 119.144C116.62 118.703 113.03 117.932 110.06 116.831C106.779 115.667 105 114.329 104.721 112.819C103.329 105.643 104.474 98.2481 108.156 90.6324ZM129.973 91.2933C126.723 85.6917 123.258 82.6864 119.575 82.2773C118.121 82.1199 116.543 82.9381 114.841 84.7319C112.272 87.4383 110.199 91.3405 108.621 96.4386C106.95 101.977 106.454 107.28 107.135 112.346C107.383 114.298 112.009 115.777 121.014 116.784C130.019 117.822 134.908 117.429 135.682 115.604C136.487 113.621 136.347 110.159 135.264 105.219C134.119 100.058 132.355 95.4158 129.973 91.2933Z" fill="#0D131A"/>
<path id="Vector_29" d="M198.346 87.5169C196.025 81.6636 193.689 78.7369 191.337 78.7369C189.263 78.7369 187.995 83.7249 187.53 93.7007C187.066 103.614 187.654 109.058 189.294 110.033C190.377 110.663 192.42 110.317 195.421 108.995C198.423 107.673 200.048 106.43 200.295 105.266C201.502 99.6957 200.852 93.7794 198.346 87.5169ZM185.349 92.8982C185.875 82.0098 187.871 76.5655 191.337 76.5655C194.338 76.5655 197.247 79.8226 200.063 86.3368C203.003 93.1972 203.823 99.6013 202.523 105.549C202.059 107.563 199.769 109.357 195.654 110.93C191.662 112.472 189.124 112.771 188.041 111.827C187.02 110.978 186.262 108.649 185.767 104.841C185.271 101.19 185.132 97.2096 185.349 92.8982Z" fill="#0D131A"/>
<path id="Vector_30" d="M64.9416 99.8845L73.0647 100.404C76.2211 100.97 78.0314 101.71 78.4956 102.622C79.3311 104.353 77.8148 108.79 73.9466 115.934C70.0785 123.141 67.1233 126.744 65.0809 126.744C63.1313 126.744 59.944 125.753 55.5189 123.77C50.8461 121.693 48.5098 119.994 48.5098 118.672C48.5098 117.917 48.8502 116.784 49.531 115.273L51.759 110.836C51.9138 110.584 52.3315 110.427 53.0123 110.364C53.724 110.332 54.0025 110.443 53.8478 110.694C53.0123 112.268 52.347 113.794 51.8519 115.273C51.4186 116.563 51.202 117.492 51.202 118.058C51.3258 118.908 53.3218 120.214 57.1899 121.976C60.9652 123.707 63.58 124.588 65.0345 124.62C66.396 124.179 68.6241 120.969 71.7186 114.99C74.8131 109.011 76.1437 105.36 75.7105 104.038C75.4629 103.503 74.1323 103 71.7186 102.528L64.5239 102.009C64.2144 102.04 64.1371 101.694 64.2918 100.97C64.4465 100.278 64.6631 99.916 64.9416 99.8845Z" fill="#0D131A"/>
<path id="Vector_31" d="M33.3312 144.729C32.3719 145.201 31.2734 146.507 30.0356 148.647C28.7978 150.755 28.2253 152.218 28.3181 153.037C28.4419 153.886 30.082 155.444 33.2384 157.71C36.3948 159.976 38.4372 161.046 39.3655 160.92C40.2939 160.794 41.7328 158.622 43.6824 154.406C45.6319 150.189 46.3591 147.813 45.864 147.278C45.307 146.711 43.2801 146.05 39.7833 145.295C36.2246 144.54 34.0739 144.351 33.3312 144.729ZM28.1789 147.419C29.6333 144.965 31.0104 143.391 32.3101 142.699L40.3403 143.077C44.7964 143.926 47.3958 144.949 48.1385 146.145C48.8192 147.246 48.0456 150.33 45.8176 155.397C43.5895 160.432 41.7638 163.217 40.3403 163.752C39.2572 164.193 36.7043 162.981 32.6814 160.117C28.5966 157.222 26.446 154.956 26.2293 153.32C26.0746 151.904 26.7245 149.937 28.1789 147.419Z" fill="#0D131A"/>
<path id="Vector_32" d="M181.078 170.313V170.361C181.14 172.973 182.394 174.877 184.838 176.072C187.035 177.142 188.521 177.315 189.294 176.592C190.099 175.836 190.377 172.973 190.13 168C189.882 162.934 189.155 160.117 187.948 159.551C187.298 159.268 185.983 160.684 184.003 163.799C182.053 166.915 181.078 169.086 181.078 170.313ZM182.425 162.194C184.807 158.324 186.649 156.404 187.948 156.435C190.053 156.467 191.368 159.881 191.894 166.679C192.42 173.35 191.987 177.205 190.594 178.244C189.449 179.125 187.36 178.968 184.328 177.772C180.862 176.387 179.082 174.074 178.99 170.833C178.959 168.882 180.104 166.002 182.425 162.194Z" fill="#0D131A"/>
<path id="Vector_33" d="M202.802 115.368C202.771 116.595 202.601 117.602 202.291 118.389L201.363 119.946C199.847 121.772 196.226 124.069 190.501 126.838C184.591 129.702 179.469 131.574 175.137 132.456C167.246 134.092 155.131 134.234 138.792 132.88C122.453 131.559 112.133 129.576 107.831 126.933C107.12 126.461 106.47 125.69 105.882 124.62C105.356 123.707 104.969 122.7 104.721 121.599C104.257 119.616 104.226 118.499 104.629 118.247C105.031 117.995 105.665 118.908 106.532 120.985C107.058 122.212 107.615 123.156 108.203 123.817L110.06 125.233C113.525 127.153 122.793 128.852 137.864 130.331C154.172 131.936 166.457 131.889 174.719 130.19C178.433 129.403 182.842 127.877 187.948 125.611C192.683 123.502 196.226 121.583 198.578 119.852C199.444 119.191 200.079 118.514 200.481 117.822C200.914 117.098 201.193 116.217 201.316 115.179C201.533 113.291 201.843 112.409 202.245 112.535C202.647 112.693 202.833 113.637 202.802 115.368Z" fill="#0D131A"/>
<path id="Vector_34" d="M132.433 76.6127C133.516 77.6198 134.568 78.8471 135.589 80.2947C136.672 81.8052 137.446 83.1741 137.91 84.4015C138.591 86.1638 138.622 87.155 138.003 87.3753C137.353 87.5641 136.626 86.8718 135.821 85.2983C134.491 82.6234 132.866 80.2003 130.947 78.0289C129.153 75.9204 128.441 74.6931 128.812 74.3469C129.215 74.0008 130.421 74.756 132.433 76.6127Z" fill="#0D131A"/>
<path id="Vector_35" d="M184.745 76.9432C184.157 78.674 183.786 80.5307 183.631 82.5133C183.508 84.2441 183.121 85.0938 182.471 85.0623C181.821 85.0623 181.543 84.2126 181.635 82.5133C181.728 80.4363 182.254 78.3908 183.214 76.3767C184.08 74.5829 184.714 73.7333 185.117 73.8277C185.488 73.9535 185.364 74.992 184.745 76.9432Z" fill="#0D131A"/>
<path id="Vector_36" d="M164.368 126.413C163.687 126.067 163.146 125.627 162.743 125.092C162.341 124.588 162.202 124.226 162.326 124.006L163.765 124.053C164.662 124.242 165.327 124.541 165.761 124.95C166.318 125.516 166.426 126.004 166.086 126.413C165.745 126.822 165.173 126.822 164.368 126.413Z" fill="#0D131A"/>
<path id="Vector_37" d="M180.196 124.053C179.547 124.871 178.959 125.155 178.433 124.903C177.907 124.651 177.876 124.132 178.34 123.345C178.68 122.779 179.222 122.275 179.964 121.835C180.645 121.394 181.078 121.252 181.264 121.41C181.388 121.536 181.357 121.866 181.171 122.401L180.196 124.053Z" fill="#0D131A"/>
<path id="Vector_38" d="M124.403 81.994C124.681 82.0884 124.805 82.5447 124.774 83.363C124.743 84.1812 124.604 84.5116 124.356 84.3543C122.778 83.3472 121.293 84.1182 119.9 86.6673C118.6 88.996 117.703 92.2216 117.208 96.3442C116.682 100.593 116.744 104.558 117.394 108.24C118.167 112.425 119.606 115.415 121.71 117.209C121.958 117.397 121.803 117.681 121.246 118.058C120.689 118.404 120.287 118.483 120.039 118.294C117.502 116.375 115.753 113.196 114.794 108.759C113.959 104.762 113.866 100.482 114.516 95.9193C115.165 91.4192 116.357 87.8316 118.09 85.1567C119.977 82.293 122.082 81.2388 124.403 81.994Z" fill="#0D131A"/>
<path id="Vector_39" d="M188.505 79.1618C189.588 78.3121 190.842 78.674 192.265 80.2475C193.689 81.7895 194.911 84.0868 195.932 87.1393C198.47 94.7864 198.578 102.308 196.257 109.703C196.164 109.986 195.808 110.191 195.189 110.317C194.57 110.411 194.292 110.317 194.354 110.033C196.241 104.054 196.303 97.2725 194.54 89.6884C193.828 86.6358 192.946 84.2284 191.894 82.4661C190.842 80.6723 189.882 80.0115 189.016 80.4835C188.768 80.6409 188.567 80.4992 188.412 80.0587C188.258 79.6496 188.289 79.3506 188.505 79.1618Z" fill="#0D131A"/>
<path id="Vector_40" d="M185.07 137.79C184.916 137.538 185.241 137.16 186.045 136.657C186.819 136.122 187.267 135.98 187.391 136.232C196.18 150.676 200.094 167.528 199.135 186.788C199.042 188.582 197.696 190.438 195.097 192.358C192.621 194.183 189.557 195.709 185.906 196.937C177.056 199.895 170.402 199.785 165.946 196.606C163.007 194.498 159.958 190.47 156.802 184.522C153.769 178.826 152.222 174.499 152.16 171.541C152.16 171.258 152.594 170.943 153.46 170.597L154.713 170.455C154.775 173.382 156.214 177.52 159.03 182.87C162.032 188.566 165.049 192.5 168.082 194.671C171.95 197.409 177.783 197.487 185.581 194.907C188.737 193.868 191.399 192.578 193.565 191.036C195.824 189.463 196.984 188.015 197.046 186.693C197.943 168.693 193.952 152.392 185.07 137.79Z" fill="#0D131A"/>
<path id="Vector_41" d="M159.123 167.717C151.108 174.106 141.546 178.433 130.437 180.698C120.132 182.775 110.926 182.665 102.818 180.368C102.54 180.274 102.493 179.786 102.679 178.905C102.834 178.055 103.05 177.662 103.329 177.725C111.282 179.99 120.179 180.132 130.019 178.149C140.014 176.135 149.081 172.312 157.22 166.679C160.314 164.539 162.032 163.689 162.372 164.13C162.682 164.539 161.599 165.735 159.123 167.717Z" fill="#0D131A"/>
<path id="Vector_42" d="M137.446 177.253C137.601 177.001 138.312 176.78 139.581 176.592L141.252 176.733C138.838 180.761 135.852 184.27 132.294 187.26C128.209 190.69 124.201 192.657 120.271 193.16L106.346 192.736C102.695 191.823 100.544 190.438 99.8941 188.582C99.8012 188.298 100.033 187.826 100.59 187.165C101.116 186.473 101.426 186.269 101.519 186.552C102.138 188.314 104.041 189.636 107.228 190.517C110.694 191.492 114.949 191.666 119.993 191.036C122.933 190.659 126.043 189.164 129.323 186.552C132.572 183.971 135.28 180.872 137.446 177.253Z" fill="#0D131A"/>
<path id="Vector_43" d="M29.4322 22.6581C29.6797 22.4693 30.2832 22.4693 31.2424 22.6581C32.7278 22.9413 34.0275 23.6179 35.1415 24.6879C35.3891 24.8767 35.4046 25.1757 35.1879 25.5848C35.0023 25.9624 34.7857 26.0568 34.5381 25.868C33.8883 25.3015 33.2539 24.9239 32.635 24.7351L31.753 24.6879L31.9387 26.1984L32.2172 29.0307C32.3101 33.3106 30.933 38.9121 28.0861 45.8355C25.858 51.3426 22.9956 57.0386 19.4988 62.9234C8.48236 81.522 6.05317 97.5715 12.2112 111.072C14.5321 116.17 17.8587 120.34 22.191 123.581C26.0282 126.413 29.7107 127.955 33.2384 128.207C33.5169 128.239 33.4705 128.601 33.0992 129.293C32.7588 130.017 32.4338 130.363 32.1244 130.331C28.0087 130.048 23.893 128.396 19.7773 125.375C15.1974 121.976 11.7161 117.57 9.33335 112.158C3.14433 98.1222 5.82108 81.3961 17.3636 61.9794C22.8099 52.7902 26.5079 45.2375 28.4574 39.3212C30.5307 33.0588 30.8711 27.9765 29.4786 24.0742C29.2001 23.3504 29.1846 22.8784 29.4322 22.6581Z" fill="#0D131A"/>
<path id="Vector_44" d="M53.4765 21.0059C53.6931 21.2262 53.6931 21.5724 53.4765 22.0444C53.2599 22.548 53.0432 22.6896 52.8266 22.4693C50.5057 20.0147 47.4886 18.0478 43.7752 16.5687C40.2784 15.2155 37.1375 14.6176 34.3524 14.775C33.0527 14.8694 32.3565 15.0425 32.2636 15.2942C32.1708 15.5145 32.4802 16.1911 33.192 17.324C36.565 22.7368 36.6578 30.7301 33.4705 41.3038C31.7376 46.9684 29.0299 54.0176 25.3474 62.4514C19.9011 77.0218 19.4679 90.0188 24.0477 101.442C25.9354 106.163 28.5502 110.159 31.8923 113.432C34.9868 116.485 38.3289 118.546 41.9185 119.616C42.1661 119.679 41.9804 119.994 41.3615 120.56C40.7426 121.095 40.2939 121.331 40.0154 121.268C30.5152 118.436 24.0013 111.229 20.4736 99.6485C16.7911 87.6586 17.6885 74.8819 23.1658 61.3185L27.2505 51.9248C29.2001 47.3303 30.67 43.3179 31.6602 39.8877C34.6928 29.5657 34.337 21.9658 30.5926 17.088C29.3239 15.4201 28.7359 14.3501 28.8287 13.8781C28.9216 13.3431 29.8499 12.9655 31.6138 12.7452C34.9249 12.3046 38.6383 12.8239 42.754 14.3029C47.1173 15.8764 50.6914 18.1107 53.4765 21.0059Z" fill="#0D131A"/>
<path id="Vector_45" d="M50.2272 11.8955L51.9447 13.3116C52.1304 13.5319 52.0839 13.9882 51.8054 14.6805C51.5269 15.3414 51.2948 15.5617 51.1092 15.3414L50.1344 14.1613C49.5774 13.5948 49.1596 13.3746 48.8811 13.5004C48.6336 13.6263 48.5407 14.0354 48.6026 14.7278L49.0204 17.4184C49.0823 17.6702 48.8347 17.796 48.2777 17.796C47.7207 17.7646 47.4267 17.6072 47.3958 17.324L46.9316 14.3973C46.8078 12.7924 47.0554 11.7381 47.6743 11.2346C48.2003 10.8255 49.0513 11.0458 50.2272 11.8955Z" fill="#0D131A"/>
<path id="Vector_46" d="M121.432 25.2071C128.085 30.6514 131.582 37.2285 131.922 44.9386C131.953 45.2533 131.551 45.4893 130.715 45.6466C129.88 45.8355 129.462 45.7725 129.462 45.4578C129.153 38.4086 126.027 32.3193 120.086 27.1897C112.937 21.0217 102.942 17.7016 90.1 17.2296C79.1145 16.8205 71.2544 15.5774 66.5198 13.5004C62.6826 11.8326 59.9131 9.01603 58.2111 5.05086C57.8397 4.20118 57.5303 3.74487 57.2827 3.68193C57.0042 3.58752 56.5555 3.90222 55.9366 4.62602C53.8633 6.95477 52.641 9.80277 52.2696 13.17C51.8983 16.6317 52.61 19.3223 54.4048 21.242C58.0254 25.0183 60.8878 29.4713 62.9921 34.6008C64.2918 37.7792 65.87 43.0819 67.7267 50.5087C69.9857 59.5405 72.4767 66.2592 75.1999 70.665C77.397 74.221 80.6153 77.4309 84.8548 80.2947C85.0404 80.3891 84.9167 80.8454 84.4834 81.6636C84.0812 82.4503 83.7562 82.765 83.5087 82.6077C78.0623 78.9572 74.1478 75.0865 71.765 70.9954C69.5679 67.2191 67.4482 61.0825 65.4058 52.5857C63.2087 43.3651 61.5686 37.3701 60.4855 34.6008C58.8145 30.2265 56.2925 26.2614 52.9195 22.7053C50.5058 20.1563 49.7321 16.3957 50.5986 11.4235C51.4341 6.73448 53.1206 3.38297 55.6581 1.36892C56.8031 0.456299 57.6076 0.0471939 58.0718 0.141603C58.536 0.236011 58.9847 0.896873 59.4179 2.12419C61.2746 7.03344 63.9359 10.2748 67.4018 11.8483C71.3008 13.5791 78.8824 14.6648 90.1464 15.1054C103.391 15.5774 113.819 18.9447 121.432 25.2071Z" fill="#0D131A"/>
<path id="Vector_47" d="M134.986 27.5674C140.896 32.7284 143.449 38.3142 142.645 44.3249C142.614 44.6082 142.15 44.734 141.252 44.7026C140.355 44.6711 139.922 44.5138 139.952 44.2305C140.633 39.0695 138.622 34.2232 133.918 29.6916C128.503 24.4991 120.968 21.5409 111.313 20.8171C111.003 20.7857 110.106 20.408 108.621 19.6842C107.104 18.929 106.485 18.5513 106.764 18.5513C118.709 18.5513 128.116 21.5567 134.986 27.5674Z" fill="#0D131A"/>
<path id="Vector_48" d="M61.6924 149.213C63.3634 142.573 65.6998 137.601 68.7014 134.297L103.097 144.493C106.099 156.136 106.393 167.229 103.979 177.772C102.524 184.034 100.25 189.62 97.1554 194.529C95.4844 197.204 92.0804 198.967 86.9436 199.816C81.5282 200.729 76.3139 200.178 71.3008 198.164C67.6493 196.716 64.7869 193.176 62.7136 187.543C60.795 182.414 59.7583 176.261 59.6036 169.086C59.4489 162.068 60.1451 155.444 61.6924 149.213Z" fill="#7CBEB3"/>
<path id="Vector_49" d="M69.0728 162.194C69.2585 160.275 71.5329 157.678 75.8962 154.406C80.2594 151.133 83.029 149.953 84.2049 150.865C85.4118 151.778 85.6439 156.75 84.9012 165.782C84.1585 174.814 83.029 179.392 81.5127 179.518C80.6153 179.581 78.2944 177.064 74.5501 171.966C70.7748 166.805 68.949 163.548 69.0728 162.194Z" fill="#006359"/>
<path id="Vector_50" d="M60.8105 151.196C60.9652 164.696 63.9514 175.947 69.769 184.947C75.3392 193.664 82.3018 198.463 90.657 199.344C87.253 200.225 83.5705 200.509 79.6096 200.194C71.6876 199.564 66.3496 196.229 63.5955 190.187C60.8414 184.176 59.5572 175.868 59.7428 165.263L60.8105 151.196Z" fill="#68A198"/>
<path id="Vector_51" d="M66.7055 139.489C62.6826 146.507 60.8569 156.561 61.2282 169.653C61.6305 183.279 64.4465 192.043 69.6762 195.945C73.2349 198.589 78.0004 199.643 83.9728 199.108C89.7286 198.573 93.5349 196.968 95.3916 194.293C99.6001 188.22 102.354 180.887 103.654 172.296C104.83 164.555 104.675 157.191 103.19 150.204C102.447 146.711 102.354 144.839 102.911 144.587C103.468 144.335 104.211 145.909 105.139 149.307C107.058 156.388 107.445 164.051 106.3 172.296C105.062 181.265 102.23 188.959 97.8053 195.379C95.5153 198.683 90.7807 200.619 83.6015 201.185C76.577 201.72 71.2854 200.666 67.7267 198.022C65.1582 196.103 63.0385 192.704 61.3675 187.826C59.7583 183.169 58.7836 177.819 58.4432 171.777C57.6076 158.056 59.7429 146.963 64.8488 138.498C66.6436 135.508 67.8814 134.076 68.5622 134.202C69.2739 134.296 68.655 136.059 66.7055 139.489Z" fill="#0D131A"/>
<path id="Vector_52" d="M70.1868 161.722C70.1249 162.824 71.7186 165.908 74.9678 170.974C78.2789 176.135 80.3987 178.653 81.327 178.527C82.3482 178.37 83.1837 174.106 83.8336 165.735C84.4834 157.332 84.3287 152.785 83.3694 152.093C82.472 151.463 80.0583 152.643 76.1283 155.633C72.2292 158.623 70.2487 160.652 70.1868 161.722ZM68.0516 161.25C68.1444 158.953 70.7283 156.058 75.8033 152.565C80.7855 149.166 83.7717 147.939 84.7619 148.883C86.402 150.488 86.8662 155.948 86.1545 165.263C85.4118 174.578 84.0966 179.786 82.209 180.887C80.9093 181.674 78.2016 179.188 74.0859 173.429C69.9702 167.702 67.9588 163.642 68.0516 161.25Z" fill="#0D131A"/>
<path id="Vector_53" d="M33.0527 194.624C32.898 194.152 33.486 193.349 34.8166 192.216C36.1782 191.083 37.1994 190.564 37.8802 190.659C39.118 190.816 39.969 192.185 40.4331 194.765C40.8664 197.157 40.8973 198.526 40.526 198.872C40.0927 199.281 38.8859 199.029 36.9054 198.117C34.7702 197.141 33.486 195.977 33.0527 194.624Z" fill="white"/>
<path id="Vector_54" d="M46.8852 198.164C44.719 197.157 43.6359 196.15 43.6359 195.143C43.6359 194.262 44.2703 193.192 45.5391 191.933C46.7769 190.674 47.7207 190.202 48.3705 190.517C49.3917 191.02 50.2272 192.5 50.8771 194.954C51.496 197.314 51.5269 198.683 50.9699 199.061C50.382 199.47 49.0204 199.171 46.8852 198.164Z" fill="white"/>
<path id="Vector_55" d="M54.1727 195.285C53.9561 193.648 54.5441 192.138 55.9366 190.753L58.1182 189.148C59.2632 189.652 60.1606 191.162 60.8105 193.68C61.3984 195.945 61.5377 197.267 61.2282 197.645L57.5612 197.55C55.3951 197.015 54.2656 196.26 54.1727 195.285Z" fill="white"/>
<path id="Vector_56" d="M72.4148 199.25C72.353 198.432 72.6315 197.55 73.2504 196.606C73.993 195.473 74.9369 194.923 76.0818 194.954C77.2268 194.986 78.1087 195.426 78.7276 196.276C79.2228 197.063 79.4394 198.022 79.3775 199.155C79.3156 200.194 78.9597 201.358 78.3099 202.648C77.691 203.939 77.1959 204.584 76.8245 204.584C76.4222 204.584 75.6177 203.907 74.4108 202.554C73.1421 201.138 72.4767 200.036 72.4148 199.25Z" fill="white"/>
<path id="Vector_57" d="M81.652 200.288C81.5591 198.746 81.9769 197.472 82.9052 196.465C83.6479 195.615 84.3906 195.19 85.1333 195.19C85.6903 195.19 86.3401 195.615 87.0828 196.465C87.8255 197.346 88.2897 198.227 88.4753 199.108C88.5991 199.675 88.4599 200.65 88.0576 202.035C87.6553 203.514 87.1756 204.395 86.6186 204.678C86.0616 204.993 85.1333 204.647 83.8336 203.64C82.4411 202.601 81.7138 201.484 81.652 200.288Z" fill="white"/>
<path id="Vector_58" d="M90.7962 200.005C89.9298 199.061 90.0071 197.629 91.0283 195.709C92.0495 193.79 93.0552 192.972 94.0454 193.255C94.9738 193.569 95.8712 194.891 96.7377 197.22C97.5422 199.454 97.7434 200.886 97.3411 201.516C96.9698 202.082 96.0105 202.208 94.4632 201.893C92.885 201.547 91.6627 200.918 90.7962 200.005Z" fill="white"/>
<path id="Vector_59" d="M106.578 191.414C106.454 190.753 107.058 189.935 108.388 188.959C109.688 188.015 110.632 187.669 111.22 187.921C112.241 188.393 112.906 189.714 113.216 191.886C113.525 193.994 113.402 195.174 112.845 195.426C112.288 195.678 111.189 195.379 109.549 194.529C107.785 193.585 106.795 192.547 106.578 191.414Z" fill="white"/>
<path id="Vector_60" d="M119.157 194.624C117.27 193.963 116.171 193.208 115.862 192.358C115.583 191.634 116.063 190.596 117.301 189.242C118.538 187.921 119.436 187.386 119.993 187.637C121.076 188.11 121.834 189.321 122.267 191.272C122.639 192.972 122.67 194.136 122.36 194.765L119.157 194.624Z" fill="white"/>
<path id="Vector_61" d="M124.217 190.706C123.846 189.95 124.372 188.865 125.795 187.449C127.188 186.064 128.193 185.498 128.812 185.749C129.524 186.064 130.22 187.213 130.901 189.195C131.551 191.146 131.721 192.342 131.412 192.783L127.884 192.688C125.842 192.185 124.619 191.524 124.217 190.706Z" fill="white"/>
<path id="Vector_62" d="M176.854 197.975C176.421 197.535 176.762 196.402 177.876 194.577C178.99 192.72 179.933 191.807 180.707 191.839C181.728 191.902 182.873 193.035 184.142 195.237C185.349 197.314 185.813 198.542 185.535 198.919C185.194 199.36 183.879 199.502 181.589 199.344C179.206 199.187 177.628 198.731 176.854 197.975Z" fill="white"/>
<path id="Vector_63" d="M186.973 195.379C186.54 194.907 186.819 193.727 187.809 191.839C188.768 189.95 189.604 189.038 190.316 189.101C190.996 189.164 191.956 190.265 193.193 192.405C194.369 194.514 194.849 195.804 194.632 196.276C194.354 196.748 193.224 196.921 191.244 196.795C189.14 196.669 187.716 196.197 186.973 195.379Z" fill="white"/>
<path id="Vector_64" d="M194.725 191.036C194.23 190.407 194.385 189.211 195.189 187.449C195.963 185.749 196.582 184.931 197.046 184.994C197.851 185.088 198.841 186.127 200.017 188.11C201.162 190.061 201.595 191.288 201.316 191.791C201.1 192.326 200.125 192.531 198.392 192.405C196.566 192.279 195.344 191.823 194.725 191.036Z" fill="white"/>
<path id="Vector_65" d="M35.0487 191.933L37.0911 194.529C38.4527 196.449 39.2108 197.944 39.3655 199.014L36.1163 197.314C33.9811 196.087 32.9754 195.206 33.0992 194.671C33.2229 194.136 33.5943 193.522 34.2132 192.83L35.0487 191.933Z" fill="#DBDCDC"/>
<path id="Vector_66" d="M45.4926 192.122L47.2565 194.34C48.4943 196.103 49.3144 197.692 49.7166 199.108C45.9104 197.755 43.9609 196.417 43.868 195.096C43.8061 194.278 44.0537 193.538 44.6107 192.877L45.4926 192.122Z" fill="#DBDCDC"/>
<path id="Vector_67" d="M60.0678 197.975C58.0873 197.535 56.6638 197.094 55.7974 196.654C54.8071 196.181 54.2501 195.599 54.1263 194.907C54.0025 194.309 54.1263 193.617 54.4977 192.83L55.1011 191.839C55.9366 192.248 56.9578 193.255 58.1647 194.86C59.1858 196.244 59.8202 197.283 60.0678 197.975Z" fill="#DBDCDC"/>
<path id="Vector_68" d="M74.2716 195.945L74.7357 198.825C75.138 200.996 75.6331 202.696 76.2211 203.923L74.4572 202.365C73.3123 201.075 72.7707 199.753 72.8326 198.4C72.8945 197.456 73.1266 196.764 73.5289 196.323C73.8383 195.977 74.0859 195.851 74.2716 195.945Z" fill="#DBDCDC"/>
<path id="Vector_69" d="M82.6267 197.456L84.3906 200.383L86.7115 204.725C85.845 204.442 84.9785 204.033 84.1121 203.498C82.3792 202.428 81.5746 201.28 81.6984 200.052C81.8222 198.856 82.0078 198.07 82.2554 197.692L82.6267 197.456Z" fill="#DBDCDC"/>
<path id="Vector_70" d="M91.0283 195.757L93.2099 197.881C94.7572 199.486 95.701 200.823 96.0414 201.893L93.1635 200.949C91.2449 200.194 90.3166 199.454 90.3785 198.731L90.7498 196.606L91.0283 195.757Z" fill="#DBDCDC"/>
<path id="Vector_71" d="M108.11 189.29C108.388 189.478 108.976 190.187 109.874 191.414C110.988 192.956 111.607 194.199 111.731 195.143L108.388 193.538C107.522 193.003 107.073 192.326 107.042 191.508C107.011 190.91 107.182 190.36 107.553 189.856L108.11 189.29Z" fill="#DBDCDC"/>
<path id="Vector_72" d="M116.79 189.573L118.322 190.659C119.498 191.76 120.519 193.208 121.385 195.001L118.879 194.293C117.177 193.664 116.233 192.94 116.047 192.122C115.862 191.304 115.924 190.643 116.233 190.139L116.79 189.573Z" fill="#DBDCDC"/>
<path id="Vector_73" d="M125.517 187.685L127.42 189.101C128.781 190.328 129.71 191.603 130.205 192.924L127.559 192.547C125.702 192.075 124.604 191.367 124.263 190.423C124.078 189.982 124.155 189.431 124.495 188.77C124.805 188.141 125.145 187.779 125.517 187.685Z" fill="#DBDCDC"/>
<path id="Vector_74" d="M178.061 194.34C180.661 195.599 182.749 197.173 184.328 199.061L180.846 199.108C178.525 198.982 177.319 198.51 177.226 197.692C177.133 196.874 177.241 196.071 177.551 195.285L178.061 194.34Z" fill="#DBDCDC"/>
<path id="Vector_75" d="M187.763 192.311C188.289 192.468 189.171 192.94 190.408 193.727C192.079 194.765 193.116 195.757 193.518 196.701L190.269 196.559C188.072 196.307 186.958 195.82 186.927 195.096C186.865 194.403 186.989 193.727 187.298 193.066L187.763 192.311Z" fill="#DBDCDC"/>
<path id="Vector_76" d="M195.097 187.685L197.139 188.959C198.655 190.029 199.707 191.162 200.295 192.358L197.882 192.169C196.211 191.917 195.174 191.493 194.772 190.895C194.369 190.297 194.307 189.573 194.586 188.723L195.097 187.685Z" fill="#DBDCDC"/>
<path id="Vector_77" d="M175.972 198.258C175.725 197.346 176.22 195.883 177.458 193.868C178.696 191.823 179.763 190.784 180.661 190.753C181.558 190.721 182.811 191.917 184.42 194.34C185.999 196.701 186.679 198.306 186.463 199.155C186.277 199.911 184.544 200.147 181.264 199.863C177.984 199.58 176.22 199.045 175.972 198.258ZM178.99 194.577C178.216 195.835 177.907 196.748 178.061 197.314C178.371 197.755 179.469 198.117 181.357 198.4C183.183 198.683 184.173 198.668 184.328 198.353C184.482 198.007 184.065 197 183.074 195.332C182.022 193.632 181.202 192.767 180.614 192.736C180.274 192.704 179.732 193.318 178.99 194.577Z" fill="#0D131A"/>
<path id="Vector_78" d="M193.658 195.898C193.843 195.615 193.441 194.608 192.451 192.877C191.491 191.146 190.764 190.234 190.269 190.139C189.898 190.108 189.372 190.769 188.691 192.122C187.979 193.475 187.685 194.419 187.809 194.954C187.902 195.426 188.877 195.772 190.733 195.993L193.658 195.898ZM190.501 188.015C191.491 188.141 192.667 189.541 194.029 192.216C195.329 194.765 195.839 196.339 195.561 196.937C195.282 197.566 193.812 197.755 191.151 197.503C188.428 197.22 186.788 196.685 186.231 195.898C185.736 195.206 186.061 193.711 187.206 191.414C188.351 189.022 189.449 187.889 190.501 188.015Z" fill="#0D131A"/>
<path id="Vector_79" d="M195.793 187.968C195.329 189.038 195.236 189.919 195.514 190.611C195.638 190.989 196.458 191.288 197.974 191.508L200.435 191.367C200.62 191.052 200.295 190.139 199.46 188.629C198.624 187.024 197.897 186.237 197.278 186.269C196.752 186.331 196.257 186.898 195.793 187.968ZM194.772 186.788C195.731 184.994 196.551 184.097 197.232 184.097C198.377 184.097 199.584 185.403 200.852 188.015C202.09 190.533 202.523 192.106 202.152 192.736L198.021 192.877C195.483 192.562 194.106 192.122 193.89 191.555C193.426 190.328 193.72 188.739 194.772 186.788Z" fill="#0D131A"/>
<path id="Vector_80" d="M86.6186 197.126C86.0926 196.496 85.582 196.213 85.0869 196.276C84.3751 196.307 83.7408 196.764 83.1837 197.645C82.6267 198.494 82.3946 199.313 82.4875 200.099C82.5803 200.823 83.1837 201.641 84.2978 202.554C85.3808 203.404 86.108 203.75 86.4794 203.593C86.7269 203.498 86.99 203.042 87.2685 202.224C87.6398 201.28 87.7636 200.398 87.6398 199.58C87.547 198.605 87.2066 197.786 86.6186 197.126ZM81.7912 196.512C82.8433 194.938 83.9883 194.199 85.2261 194.293C86.1235 194.356 86.9281 194.828 87.6398 195.709C88.3516 196.591 88.8003 197.676 88.9859 198.967C89.2026 200.225 89.1097 201.594 88.7074 203.073C88.3051 204.521 87.81 205.355 87.2221 205.575C86.4794 205.858 85.288 205.449 83.6479 204.348C81.884 203.121 80.8783 201.783 80.6308 200.335C80.4451 199.234 80.8319 197.96 81.7912 196.512Z" fill="#0D131A"/>
<path id="Vector_81" d="M77.7529 197.031C77.3506 196.465 76.9019 196.15 76.4068 196.087C75.8188 196.024 75.1999 196.276 74.5501 196.842C73.8693 197.409 73.5289 198.022 73.5289 198.683C73.5598 199.502 74.0085 200.477 74.875 201.61C75.6486 202.68 76.2211 203.215 76.5924 203.215C76.9328 203.183 77.3042 202.727 77.7065 201.846C78.1397 200.965 78.3718 200.084 78.4027 199.203C78.4337 198.384 78.2171 197.661 77.7529 197.031ZM72.9719 195.473C74.1168 194.435 75.3082 193.994 76.546 194.152C77.5672 194.278 78.4491 194.844 79.1918 195.851C79.9036 196.858 80.2285 197.975 80.1666 199.203C80.1356 200.21 79.7488 201.5 79.0062 203.073C78.2016 204.71 77.5053 205.559 76.9174 205.622C76.2366 205.717 75.169 204.914 73.7145 203.215C72.1673 201.453 71.3627 199.958 71.3008 198.731C71.2389 197.566 71.796 196.48 72.9719 195.473Z" fill="#0D131A"/>
<path id="Vector_82" d="M95.6236 196.087C94.9119 195.08 94.2621 194.577 93.6741 194.577C93.0861 194.514 92.4982 194.954 91.9102 195.898C91.2913 196.874 91.0592 197.786 91.214 198.636C91.3687 199.391 92.2352 200.052 93.8134 200.619C95.3297 201.122 96.2116 201.264 96.4592 201.044C96.6758 200.855 96.7222 200.194 96.5984 199.061C96.4746 197.834 96.1497 196.842 95.6236 196.087ZM93.999 192.5C95.5153 192.72 96.7067 194.34 97.5732 197.362C98.3778 200.194 98.5325 201.893 98.0374 202.46L93.6741 202.176C91.0747 201.453 89.6667 200.509 89.4501 199.344C89.2025 198.054 89.5584 196.575 90.5177 194.907C91.5698 193.113 92.7303 192.311 93.999 192.5Z" fill="#0D131A"/>
<path id="Vector_83" d="M61.646 193.302C62.4196 196.323 62.497 198.022 61.8781 198.4C61.0735 198.872 59.4953 198.778 57.1435 198.117C54.6988 197.425 53.3372 196.591 53.0587 195.615C52.6874 194.451 53.1206 192.956 54.3584 191.131C55.6272 189.242 56.8959 188.346 58.1647 188.44C59.65 188.534 60.8105 190.155 61.646 193.302ZM55.0083 194.86C55.1011 195.521 55.9521 196.119 57.5612 196.654C59.1085 197.157 60.0523 197.251 60.3927 196.937C60.6403 196.716 60.501 195.662 59.9749 193.774C59.4179 191.76 58.7681 190.69 58.0254 190.564C57.4065 190.47 56.7257 190.895 55.983 191.839C55.1475 192.846 54.8226 193.853 55.0083 194.86Z" fill="#0D131A"/>
<path id="Vector_84" d="M44.75 195.143C44.75 195.867 45.601 196.622 47.3029 197.409C48.974 198.164 49.9333 198.369 50.1808 198.022C50.4593 197.676 50.382 196.654 49.9487 194.954C49.4846 193.129 48.8811 192.138 48.1385 191.98C47.4267 191.823 46.684 192.153 45.9104 192.972C45.1987 193.727 44.8119 194.419 44.75 195.049V195.143ZM44.7036 191.414C46.0342 190.155 47.2101 189.62 48.2313 189.809C49.7785 190.092 50.8926 191.744 51.5734 194.765C52.2232 197.629 52.2387 199.328 51.6198 199.863C51.0318 200.43 49.3917 200.115 46.6995 198.919C43.8835 197.724 42.5374 196.37 42.6612 194.86C42.754 193.79 43.4348 192.641 44.7036 191.414Z" fill="#0D131A"/>
<path id="Vector_85" d="M125.145 190.045C125.238 190.674 126.135 191.272 127.837 191.839C129.478 192.374 130.406 192.5 130.623 192.216C130.839 191.933 130.7 190.958 130.205 189.29C129.679 187.527 129.106 186.615 128.487 186.552C127.961 186.489 127.25 186.898 126.352 187.779C125.455 188.692 125.052 189.447 125.145 190.045ZM125.192 186.882C126.801 185.309 128.07 184.679 128.998 184.994C130.174 185.435 131.133 186.929 131.876 189.478C132.588 191.902 132.711 193.333 132.247 193.774C131.783 194.183 130.267 194.042 127.698 193.349C125.068 192.625 123.598 191.823 123.289 190.942C122.917 189.84 123.552 188.487 125.192 186.882Z" fill="#0D131A"/>
<path id="Vector_86" d="M119.25 193.821C120.612 194.293 121.401 194.419 121.618 194.199C121.834 193.979 121.788 193.082 121.478 191.508C121.138 189.84 120.658 188.928 120.039 188.77C119.42 188.613 118.693 188.959 117.858 189.809C117.022 190.69 116.682 191.461 116.836 192.122C117.022 192.783 117.827 193.349 119.25 193.821ZM120.411 187.024C121.432 187.276 122.283 188.645 122.964 191.131C123.583 193.554 123.644 195.143 123.149 195.898C122.84 196.37 121.463 196.166 119.018 195.285C116.481 194.372 115.119 193.412 114.933 192.405C114.717 191.398 115.305 190.187 116.697 188.77C118.121 187.323 119.359 186.741 120.411 187.024Z" fill="#0D131A"/>
<path id="Vector_87" d="M109.874 193.727C111.235 194.482 112.055 194.765 112.334 194.577C112.582 194.419 112.612 193.507 112.427 191.839C112.21 190.076 111.777 189.085 111.127 188.865C110.508 188.644 109.766 188.865 108.899 189.526C108.064 190.155 107.661 190.784 107.692 191.414C107.723 192.169 108.45 192.94 109.874 193.727ZM111.638 187.118C112.937 187.401 113.711 188.959 113.959 191.791C114.175 194.466 114.02 195.993 113.494 196.37C112.906 196.748 111.452 196.307 109.131 195.049C106.779 193.727 105.557 192.578 105.464 191.603C105.371 190.69 106.037 189.652 107.46 188.487C108.976 187.291 110.369 186.835 111.638 187.118Z" fill="#0D131A"/>
<path id="Vector_88" d="M36.7197 196.701C38.3598 197.55 39.3036 197.818 39.5512 197.503C39.8297 197.189 39.7833 196.197 39.4119 194.529C39.0097 192.799 38.53 191.854 37.973 191.697C37.3232 191.477 36.5341 191.729 35.6057 192.452C34.6773 193.176 34.2132 193.884 34.2132 194.577C34.2441 195.112 35.0796 195.82 36.7197 196.701ZM38.3908 189.573C39.7214 189.856 40.6652 191.508 41.2222 194.529C41.7483 197.425 41.7328 199.045 41.1758 199.391C40.2165 200.052 38.4836 199.706 35.977 198.353C33.5014 197.031 32.2172 195.851 32.1244 194.813C32.0006 193.617 32.7278 192.374 34.306 191.083C35.8533 189.825 37.2148 189.321 38.3908 189.573Z" fill="#0D131A"/>
</g>
</g>
</svg>
