<svg width="53" height="49" viewBox="0 0 53 49" fill="none" xmlns="http://www.w3.org/2000/svg">
<g id="&#240;&#159;&#166;&#134; icon &#34;heart&#34;">
<path id="Vector" d="M9.75 8C7.06875 8 4.68 9.07918 2.87625 10.7683C1.12125 12.4575 0 14.7566 0 17.3842C0 19.9648 1.12125 22.2639 2.87625 24L19.5 40L36.1237 24C37.8787 22.3109 39 20.0117 39 17.3842C39 14.8035 37.8787 12.5044 36.1237 10.7683C34.3687 9.07918 31.98 8 29.25 8C26.5688 8 24.18 9.07918 22.3763 10.7683C20.6213 12.4575 19.5 14.7566 19.5 17.3842C19.5 14.8035 18.3787 12.5044 16.6238 10.7683C14.8688 9.07918 12.48 8 9.75 8Z" fill="white"/>
</g>
</svg>
